# xmcd
#
# Track frame offsets: 
#        150
#        24784
#        48220
#        77606
#        100060
#        117044
#        137330
#        159730
#        183656
#        211209
#
# Disc length: 3172 seconds
#
# Revision: 0
# Processed by: cddbd v1.5.2PL0 Copyright (c) Steve Scherf et al.
# Submitted via: ExactAudioCopy v1.0b3
#
DISCID=710c620a
DTITLE=Truong Vu, Hong Truc - Vong Ve Tim
DYEAR=2000
DGENRE=
TTITLE0=Hong Truc - Vong ve tim
TTITLE1=Truong Vu - Giong ca di vang
TTITLE2=Hong Truc - Tam su doi toi
TTITLE3=Truong Vu - Chuyen tau hoang hon
TTITLE4=Hong Truc - Doi thay
TTITLE5=Truong Vu - Thi tran ve dem
TTITLE6=Hong Truc - Tra lai thoi gian
TTITLE7=Truong Vu - Giot le dai trang
TTITLE8=Hong Truc - Lu but ngay xanh
TTITLE9=Truong Vu - Dem voi minh
EXTD=
EXTT0=
EXTT1=
EXTT2=
EXTT3=
EXTT4=
EXTT5=
EXTT6=
EXTT7=
EXTT8=
EXTT9=
PLAYORDER=
